<svg xmlns="http://www.w3.org/2000/svg" xmlns:xlink="http://www.w3.org/1999/xlink"><defs><path id="a" d="M.077.022H89V23.97H.077z"/><path id="a" d="M.213.156h18.99v23.288H.213z"/><path id="c" d="M.128.109h60.023v24.222H.128z"/></defs><symbol id="icon-logo" viewBox="0 0 244 25"><title>9043DEE1-CEB8-47C8-9181-97C9185D8921</title><g fill-rule="evenodd"><path d="M26.336.577l-3.584 14.506L18.645.577h-4.64l-4.11 14.506L6.346.577H0l6.446 23.025h6.212L16.34 10.61l3.682 12.992h6.215L32.649.577z"/><path d="M147.725.577l-3.583 14.506-4.11-14.506h-4.636l-4.11 14.506-3.55-14.506h-6.346l6.444 23.025h6.214l3.682-12.992 3.683 12.992h6.215L154.039.577z"/><path d="M167.865 21.43c1.15 0 2.103-.394 2.894-1.217.82-.82 1.215-1.842 1.215-3.025 0-1.152-.395-2.17-1.215-2.994-.79-.82-1.743-1.25-2.894-1.25h-7.728v8.486h7.728zm-7.728-18.684v8.03h6.972c1.085 0 1.97-.397 2.727-1.152.758-.792 1.154-1.746 1.154-2.863 0-1.084-.396-2.038-1.154-2.827-.756-.791-1.642-1.188-2.727-1.188h-6.972zm14.14 14.442c0 1.779-.627 3.29-1.873 4.54-1.252 1.251-2.763 1.874-4.539 1.874h-10.028V.577h9.272c1.71 0 3.156.628 4.373 1.845 1.216 1.216 1.807 2.66 1.807 4.339 0 2.14-.885 3.785-2.695 4.9 2.234.956 3.683 3.027 3.683 5.527z"/><path d="M188.818 21.76c2.732 0 4.998-.919 6.838-2.793 1.842-1.875 2.763-4.179 2.763-6.877 0-2.695-.921-4.968-2.763-6.842-1.84-1.874-4.106-2.826-6.838-2.826-2.731 0-4.995.952-6.837 2.826-1.841 1.874-2.763 4.147-2.763 6.842 0 2.698.922 5.002 2.763 6.877 1.842 1.874 4.106 2.794 6.837 2.794m0 2.235c-3.318 0-6.145-1.152-8.448-3.451-2.302-2.336-3.453-5.132-3.453-8.455 0-3.321 1.151-6.117 3.453-8.422 2.303-2.335 5.13-3.485 8.448-3.485 3.32 0 6.148 1.15 8.45 3.485 2.302 2.305 3.453 5.1 3.453 8.422 0 3.323-1.151 6.12-3.453 8.455-2.302 2.299-5.13 3.45-8.45 3.45"/><path d="M213.558 21.43c2.53 0 4.569-.886 6.181-2.693 1.612-1.811 2.432-4.015 2.432-6.648 0-2.63-.82-4.834-2.432-6.642-1.612-1.81-3.651-2.7-6.181-2.7h-6.578V21.43h6.578zm0-20.853c3.124 0 5.72 1.12 7.76 3.357 2.07 2.205 3.09 4.932 3.09 8.155 0 3.224-1.02 5.956-3.09 8.19-2.04 2.205-4.636 3.323-7.76 3.323h-8.877V.577h8.877z"/><path d="M243.325.578l-8.317 13.583v9.441h-2.304v-9.505L224.419.577h2.596l6.875 11.283L240.728.578z"/><path d="M79.674 8.405c-1.016 0-1.873.35-2.555 1.033-.684.683-1.034 1.557-1.034 2.62 0 1.066.35 1.94 1.034 2.624.682.682 1.539 1.018 2.555 1.018 1.017 0 1.875-.336 2.558-1.018.682-.685 1.033-1.558 1.033-2.624 0-1.063-.351-1.937-1.033-2.62-.683-.683-1.54-1.033-2.558-1.033"/><path d="M68.055 8.547h-2.256v3.29h2.256c.825 0 1.508-.746 1.508-1.653 0-.906-.683-1.637-1.508-1.637"/><g transform="translate(32.557 .064)"><mask id="b"><use xlink:href="#a"/></mask><path d="M78.41 12.44c0 1.587-.508 2.876-1.525 3.862-1.016.985-2.334 1.477-3.938 1.477-1.716 0-3.146-.557-4.273-1.668-1.128-1.128-1.684-2.495-1.684-4.1 0-1.62.556-2.987 1.668-4.115 1.127-1.128 2.51-1.684 4.162-1.684 2.08 0 3.89 1.016 4.845 2.59l-1.876 1.08c-.523-.905-1.668-1.541-2.984-1.541-1.066 0-1.938.35-2.623 1.047-.682.684-1.017 1.558-1.017 2.622 0 1.05.35 1.923 1.034 2.608.697.682 1.62 1.017 2.762 1.017 1.702 0 2.843-.796 3.242-2.115h-3.369v-1.937h5.576v.857zm-14.162 5.116h-1.667l-4.764-6.8v6.8h-2.192V6.433h1.668l4.765 6.786V6.433h2.19v11.123zM51.217 16.11c-1.129 1.111-2.494 1.668-4.1 1.668-1.602 0-2.968-.557-4.096-1.668-1.112-1.128-1.668-2.495-1.668-4.117 0-1.619.556-2.987 1.668-4.098 1.128-1.128 2.494-1.684 4.097-1.684 1.605 0 2.97.556 4.099 1.684 1.127 1.111 1.683 2.48 1.683 4.098 0 1.622-.556 2.989-1.683 4.117zm-14.068 1.445l-2.24-3.86h-1.667v3.86h-2.19V6.433h4.446c1.031 0 1.906.366 2.62 1.082a3.562 3.562 0 0 1 1.081 2.605c0 1.383-.858 2.655-2.143 3.242l2.459 4.194h-2.366zm-8.507-9.024h-3.003v9.024h-2.19V8.532h-2.987V6.433h8.18v2.099zm-10.7 8.34c-.748.606-1.716.907-2.908.907-2.208 0-3.747-1.05-4.366-2.75l1.873-1.096c.43 1.13 1.286 1.702 2.558 1.702 1.221 0 1.778-.494 1.778-1.178 0-.395-.176-.698-.524-.905-.35-.222-.97-.46-1.874-.714-1-.302-1.604-.541-2.304-1.034-.682-.507-1.048-1.271-1.048-2.287 0-1 .35-1.811 1.064-2.4.715-.604 1.59-.905 2.59-.905 1.795 0 3.207.922 3.97 2.495L16.91 9.77c-.444-.954-1.16-1.43-2.127-1.43-.905 0-1.462.46-1.462 1.113 0 .348.142.635.427.856.303.206.859.446 1.686.702l.762.252c.175.048.412.144.714.27.301.112.54.223.7.334.333.206.84.604 1.047.985.238.382.413.939.413 1.574 0 1.032-.38 1.842-1.127 2.446zM77.03.023H12.048C5.436.021.077 5.383.077 11.993c0 6.616 5.359 11.976 11.971 11.976h64.983c6.61 0 11.97-5.36 11.97-11.976C89 5.384 83.64.021 77.03.021z" mask="url(#b)"/></g></g></symbol><symbol id="icon-men-white" viewBox="0 0 201 25"><title>DFA4EC16-1FD5-4D46-95D9-C417A05848D2</title><g fill-rule="evenodd"><path d="M25.279 1.514l-3.44 13.917L17.89 1.514h-4.45L9.495 15.43 6.09 1.514H0l6.184 22.09h5.966l3.535-12.465 3.532 12.465h5.967l6.152-22.09z"/><path d="M108.203 1.486l-3.44 13.917-3.945-13.917h-4.45l-3.945 13.917-3.407-13.917h-6.092l6.186 22.09h5.964l3.534-12.466 3.536 12.466h5.966l6.152-22.09z"/><path d="M127.535 21.493c1.103 0 2.018-.379 2.775-1.166.787-.79 1.168-1.77 1.168-2.905 0-1.106-.38-2.082-1.168-2.871-.757-.788-1.672-1.2-2.775-1.2h-7.42v8.142h7.42zm-7.42-17.927v7.704h6.694c1.04 0 1.892-.382 2.618-1.106.725-.759 1.105-1.674 1.105-2.746 0-1.04-.38-1.956-1.105-2.712-.726-.76-1.578-1.14-2.618-1.14h-6.694zm13.574 13.856c0 1.706-.602 3.157-1.798 4.355-1.203 1.2-2.653 1.799-4.356 1.799h-9.627V1.486h8.901c1.64 0 3.027.601 4.197 1.767 1.168 1.168 1.735 2.553 1.735 4.165 0 2.055-.85 3.632-2.59 4.702 2.146.917 3.538 2.905 3.538 5.302z"/><path d="M147.646 21.81c2.623 0 4.799-.883 6.564-2.681 1.767-1.8 2.653-4.009 2.653-6.598 0-2.587-.886-4.767-2.653-6.566-1.765-1.798-3.941-2.711-6.564-2.711-2.62 0-4.796.913-6.561 2.711-1.77 1.8-2.656 3.98-2.656 6.566 0 2.59.886 4.799 2.656 6.598 1.765 1.798 3.94 2.68 6.561 2.68m0 2.146c-3.186 0-5.9-1.106-8.11-3.313-2.21-2.24-3.314-4.924-3.314-8.111 0-3.187 1.103-5.87 3.315-8.08 2.209-2.241 4.923-3.344 8.109-3.344 3.189 0 5.9 1.103 8.112 3.345 2.209 2.209 3.314 4.892 3.314 8.079 0 3.187-1.105 5.872-3.314 8.111-2.212 2.207-4.923 3.313-8.112 3.313"/><path d="M171.395 21.493c2.427 0 4.384-.85 5.932-2.584 1.545-1.737 2.332-3.854 2.332-6.379 0-2.522-.787-4.639-2.332-6.372-1.548-1.737-3.505-2.592-5.932-2.592h-6.315v17.927h6.315zm0-20.008c2.997 0 5.49 1.074 7.448 3.221 1.986 2.116 2.964 4.732 2.964 7.824 0 3.093-.978 5.716-2.964 7.857-1.959 2.119-4.451 3.189-7.448 3.189h-8.523V1.486h8.523z"/><path d="M199.963 1.485l-7.98 13.034v9.057h-2.212v-9.119L181.82 1.485h2.49l6.6 10.824 6.563-10.824z"/><path d="M73.071 18h-1.64l-4.687-6.688v6.687h-2.157V7.062h1.643l4.687 6.672V7.062h2.154v10.937zM61.9 18h-6.764V7.061h6.687v2.062h-4.53v2.328h4.14v2.032h-4.14v2.454H61.9v2.061zm-9.968 0H49.79v-7.094l-3.078 5.078h-.248l-3.078-5.063V18H41.23V7.062h2.217l3.14 5.172 3.126-5.172h2.218v10.937zM71.49 1.041H42.812c-6.346 0-11.49 5.145-11.49 11.489 0 6.345 5.144 11.488 11.49 11.488H71.49c6.346 0 11.492-5.143 11.492-11.488 0-6.344-5.146-11.489-11.492-11.489z"/></g></symbol><symbol id="icon-mom" viewBox="0 0 217 25"><title>C8741B57-CE7F-41C2-969F-57AFEB6BD280</title><g fill-rule="evenodd"><path d="M25.9 1.003l-3.523 14.53-4.042-14.53h-4.56l-4.042 14.53L6.24 1.003H0l6.337 23.063h6.111l3.621-13.014 3.623 13.014h6.112l6.303-23.063z"/><path d="M97.641 24.066L91.304 1.003h6.241l3.494 14.53 4.04-14.53h4.56l4.04 14.53 3.525-14.53h6.207l-6.303 23.063h-6.112l-3.623-13.014-3.62 13.014z"/><path d="M138.775 21.699c1.154 0 2.112-.4 2.906-1.231.824-.831 1.222-1.865 1.222-3.062 0-1.164-.398-2.193-1.222-3.026-.794-.83-1.752-1.264-2.906-1.264h-7.762v8.583h7.762zM131.013 2.8v8.12h7.002c1.088 0 1.98-.4 2.74-1.165a4.069 4.069 0 0 0 1.158-2.894c0-1.097-.398-2.062-1.158-2.86-.76-.8-1.652-1.201-2.74-1.201h-7.002zm14.2 14.605c0 1.8-.628 3.329-1.882 4.593-1.254 1.265-2.774 1.896-4.556 1.896H128.7V.607h9.315c1.716 0 3.17.635 4.392 1.865 1.22 1.23 1.814 2.691 1.814 4.39 0 2.164-.89 3.827-2.706 4.956 2.244.966 3.698 3.062 3.698 5.588z"/><path d="M159.82 22.032c2.742 0 5.02-.93 6.868-2.826 1.85-1.895 2.774-4.226 2.774-6.955 0-2.726-.924-5.025-2.774-6.92-1.848-1.897-4.126-2.86-6.868-2.86s-5.016.963-6.866 2.86c-1.85 1.895-2.774 4.194-2.774 6.92 0 2.73.924 5.06 2.774 6.955 1.85 1.896 4.124 2.826 6.866 2.826m0 2.262c-3.332 0-6.174-1.166-8.486-3.492-2.312-2.362-3.468-5.19-3.468-8.55 0-3.36 1.156-6.188 3.468-8.52 2.312-2.36 5.154-3.524 8.486-3.524 3.334 0 6.174 1.163 8.486 3.525 2.314 2.33 3.47 5.159 3.47 8.518 0 3.36-1.156 6.189-3.47 8.551-2.312 2.326-5.152 3.492-8.486 3.492"/><path d="M184.67 21.699c2.54 0 4.59-.897 6.208-2.725 1.62-1.832 2.444-4.061 2.444-6.723 0-2.66-.824-4.89-2.444-6.72-1.618-1.83-3.669-2.73-6.208-2.73h-6.607v18.898h6.607zm0-21.092c3.138 0 5.746 1.131 7.796 3.395 2.078 2.23 3.102 4.989 3.102 8.25 0 3.26-1.024 6.023-3.102 8.281-2.05 2.231-4.658 3.362-7.796 3.362h-8.914V.607h8.914z"/><g transform="translate(195.366 .45)"><mask id="b"><use xlink:href="#a"/></mask><path mask="url(#b)" d="M19.203.156L10.85 13.895v9.55H8.535V13.83L.213.156h2.61l6.904 11.411L16.593.157z"/></g><path d="M62.246 8.524c-1.02 0-1.882.354-2.568 1.044-.685.693-1.037 1.576-1.037 2.653s.352 1.962 1.037 2.652c.686.69 1.548 1.028 2.568 1.028 1.022 0 1.884-.338 2.57-1.028.685-.69 1.036-1.575 1.036-2.652 0-1.077-.35-1.96-1.037-2.653-.685-.69-1.547-1.044-2.57-1.044"/><g transform="translate(32.107)"><mask id="d"><use xlink:href="#c"/></mask><path d="M49.61 17.846h-2.184v-7.297l-3.142 5.224h-.256l-3.144-5.207v7.28h-2.2V6.596h2.264l3.206 5.319 3.193-5.318h2.263v11.249zm-15.356-1.463c-1.13 1.125-2.504 1.687-4.115 1.687-1.61 0-2.983-.562-4.113-1.687-1.118-1.141-1.676-2.523-1.676-4.162 0-1.64.558-3.023 1.676-4.148 1.13-1.14 2.503-1.702 4.113-1.702 1.611 0 2.985.563 4.115 1.702 1.133 1.125 1.693 2.509 1.693 4.148 0 1.639-.56 3.021-1.693 4.162zm-12.659 1.463h-2.184v-7.297l-3.143 5.224h-.255l-3.145-5.207v7.28H10.67V6.596h2.263l3.206 5.319 3.194-5.318h2.263v11.249zM48.131.109h-35.98C5.508.109.128 5.532.128 12.219c0 6.692 5.38 12.112 12.023 12.112h35.98c6.64 0 12.02-5.42 12.02-12.112 0-6.687-5.38-12.11-12.02-12.11z" mask="url(#d)"/></g></g></symbol><symbol id="icon-slim" viewBox="0 0 212 25"><title>46314E87-0A0D-4363-B2CF-C0BFCE4A3056</title><g fill-rule="evenodd"><path d="M26.207.71l-3.564 14.413L18.553.71h-4.616l-4.09 14.413L6.314.71H0l6.413 22.878h6.182l3.664-12.91 3.667 12.91h6.185L32.49.71z"/><path d="M95.8 23.588L89.385.71h6.316l3.535 14.414L103.324.71h4.615l4.089 14.414L115.595.71h6.284l-6.384 22.878h-6.182l-3.666-12.91-3.665 12.91z"/><path d="M135.638 21.43c1.144 0 2.093-.392 2.88-1.208.816-.817 1.21-1.832 1.21-3.008 0-1.144-.394-2.154-1.21-2.973-.787-.815-1.736-1.243-2.88-1.243h-7.69v8.432h7.69zm-7.69-18.564v7.978h6.937c1.078 0 1.962-.394 2.715-1.145.753-.787 1.148-1.735 1.148-2.844 0-1.077-.395-2.026-1.148-2.81-.753-.786-1.637-1.18-2.715-1.18h-6.937zm14.071 14.348c0 1.77-.624 3.27-1.864 4.512-1.245 1.243-2.75 1.862-4.517 1.862h-9.981V.71h9.228c1.7 0 3.141.624 4.352 1.833 1.21 1.207 1.8 2.643 1.8 4.312 0 2.127-.882 3.76-2.684 4.87 2.224.948 3.666 3.006 3.666 5.49z"/><path d="M156.49 21.758c2.717 0 4.976-.912 6.807-2.775 1.831-1.862 2.747-4.153 2.747-6.833 0-2.677-.916-4.937-2.747-6.799-1.83-1.862-4.09-2.808-6.807-2.808-2.717 0-4.97.946-6.805 2.808-1.83 1.862-2.748 4.122-2.748 6.799 0 2.68.917 4.97 2.748 6.833 1.835 1.863 4.088 2.775 6.805 2.775m0 2.222c-3.301 0-6.115-1.146-8.408-3.43-2.29-2.32-3.436-5.098-3.436-8.4 0-3.301 1.145-6.079 3.436-8.368 2.293-2.32 5.107-3.464 8.408-3.464 3.306 0 6.117 1.143 8.408 3.464 2.293 2.289 3.439 5.067 3.439 8.368 0 3.302-1.146 6.08-3.439 8.4-2.29 2.284-5.102 3.43-8.408 3.43"/><path d="M181.111 21.43c2.52 0 4.548-.88 6.154-2.677 1.603-1.799 2.42-3.988 2.42-6.604 0-2.613-.817-4.804-2.42-6.6-1.606-1.799-3.635-2.683-6.154-2.683h-6.545V21.43h6.545zm0-20.72c3.112 0 5.694 1.113 7.725 3.335 2.061 2.191 3.074 4.901 3.074 8.104 0 3.203-1.013 5.918-3.074 8.136-2.031 2.193-4.613 3.303-7.725 3.303h-8.832V.71h8.832z"/><path d="M210.736.71l-8.277 13.497v9.38h-2.293v-9.443L191.92.71h2.586l6.841 11.21L208.152.71z"/><path d="M78.988 17.645H76.82v-7.167l-3.113 5.13h-.254l-3.113-5.115v7.152h-2.183V6.592h2.246l3.177 5.228 3.162-5.228h2.245v11.053zm-16.247 0h2.18V6.592h-2.18v11.053zm-2.413 0h-6.403V6.592h2.182v8.97h4.22v2.083zm-10.048-.678c-.744.6-1.708.9-2.894.9-2.198 0-3.73-1.043-4.348-2.733l1.865-1.09c.429 1.121 1.28 1.692 2.546 1.692 1.218 0 1.77-.49 1.77-1.17 0-.393-.175-.694-.52-.9-.349-.22-.965-.458-1.868-.71-.993-.3-1.594-.537-2.29-1.027-.68-.503-1.042-1.263-1.042-2.273 0-.993.348-1.8 1.059-2.384.71-.6 1.58-.899 2.575-.899 1.787 0 3.194.915 3.953 2.478L49.251 9.91c-.44-.947-1.154-1.42-2.118-1.42-.9 0-1.453.457-1.453 1.105 0 .346.14.63.426.851.3.205.852.444 1.675.696l.76.251c.174.049.408.143.71.269.302.11.538.222.696.331.333.205.837.601 1.042.98.238.38.414.932.414 1.564 0 1.026-.38 1.83-1.123 2.43zM77.64.22H44.389c-6.582 0-11.912 5.329-11.912 11.898 0 6.573 5.33 11.899 11.912 11.899h33.25c6.58 0 11.91-5.326 11.91-11.899 0-6.57-5.33-11.898-11.91-11.898z"/></g></symbol></svg>